<?xml version="1.0" encoding="UTF-8" standalone="no"?>
<svg
   width="52"
   height="52"
   viewBox="0 0 52 52"
   fill="none"
   version="1.1"
   id="svg2"
   sodipodi:docname="logo.svg"
   inkscape:version="1.3.2 (091e20ef0f, 2023-11-25)"
   xmlns:inkscape="http://www.inkscape.org/namespaces/inkscape"
   xmlns:sodipodi="http://sodipodi.sourceforge.net/DTD/sodipodi-0.dtd"
   xmlns="http://www.w3.org/2000/svg"
   xmlns:svg="http://www.w3.org/2000/svg">
  <defs
     id="defs2" />
  <sodipodi:namedview
     id="namedview2"
     pagecolor="#ffffff"
     bordercolor="#666666"
     borderopacity="1.0"
     inkscape:showpageshadow="2"
     inkscape:pageopacity="0.0"
     inkscape:pagecheckerboard="0"
     inkscape:deskcolor="#d1d1d1"
     inkscape:zoom="31.568627"
     inkscape:cx="25.5"
     inkscape:cy="17.881677"
     inkscape:window-width="2560"
     inkscape:window-height="2803"
     inkscape:window-x="0"
     inkscape:window-y="0"
     inkscape:window-maximized="1"
     inkscape:current-layer="svg2" />
  <ellipse
     cx="22.636919"
     cy="30.247463"
     fill="#e0d2e5"
     id="ellipse1"
     rx="19.014894"
     ry="18.920748"
     style="stroke-width:1.02599" />
  <path
     d="m 33.462545,39.076778 c 0.0937,2.499576 -0.896994,4.606861 -2.081773,6.647726 -1.081,1.677538 -1.898178,3.509004 -2.423044,5.431251 C 28.857243,51.607711 28.636411,51.973391 28.100951,52 27.863667,51.999488 27.63502,51.911475 27.459346,51.752939 27.283773,51.594508 27.173616,51.376922 27.150371,51.14245 26.60154,48.589656 25.329746,46.289551 24.098065,44.002752 23.53576,42.97234 23.107371,41.868856 22.598653,40.771921 c 0,0 -0.05349,0 -0.0937,0 -2.27915,1.615415 -4.88548,2.717979 -7.637452,3.230831 -2.327594,0.509167 -4.69451,0.8205 -7.075239,0.930726 -1.1312336,0.05311 -2.2624672,0.166208 -3.3803092,0.31901 C 3.749937,45.333338 3.1029932,45.507941 2.4908657,45.771071 1.0048637,46.435802 0.28194555,45.62482 0.08782873,44.381633 -0.11419906,43.109893 0.03382445,41.807449 0.51622519,40.612467 1.1989942,38.983132 2.1565272,37.48132 3.347653,36.171712 4.9817107,34.2466 6.9382375,32.616037 9.1310002,31.352177 l 0.381538,-0.246038 C 9.3920552,30.494627 9.2514839,29.909622 9.1510774,29.317965 8.5285616,25.515434 9.5125382,22.04532 11.453657,18.801184 c 1.131296,-1.881308 2.356189,-3.709397 3.494169,-5.590705 1.010339,-1.586964 1.732994,-3.3373617 2.135257,-5.1719191 0.327797,-1.9084501 0.381796,-3.8533658 0.160659,-5.7768812 -0.05019,-0.5439643 -0.05019,-1.0913674 0,-1.63533589 0.01481,-0.12161573 0.05677,-0.23841917 0.122808,-0.34191363 0.06593,-0.10349456 0.154385,-0.1910794 0.258782,-0.25638173 0.271124,-0.06248996 0.556031,-0.01968304 0.796504,0.11965886 0.206428,0.15747535 0.379327,0.35405375 0.508718,0.57835232 3.788641,4.93440977 6.315155,10.70801637 7.363036,16.82538937 0.575675,3.323863 1.184779,6.647725 1.050966,10.051418 -0.04022,1.06357 -0.187504,2.127243 -0.28789,3.184263 0,0.199368 0,0.398839 -0.06027,0.717952 0.244177,-0.136119 0.48105,-0.284827 0.709592,-0.445406 1.747085,-1.435902 3.520912,-2.838645 5.214409,-4.334317 1.811368,-1.706196 3.749042,-3.275044 5.796666,-4.693343 3.162155,-2.159277 6.93434,-3.262865 10.770191,-3.151001 0.493495,0.01566 0.984317,0.07799 1.46588,0.186165 0.223092,0.02129 0.435075,0.106439 0.610338,0.245117 0.175264,0.138677 0.306301,0.324844 0.377064,0.535879 0.07087,0.211138 0.07858,0.43814 0.02211,0.653474 -0.05647,0.215334 -0.174646,0.409789 -0.340139,0.559828 -0.188943,0.219632 -0.397224,0.422173 -0.622475,0.604962 -2.173108,1.885606 -3.943848,4.18438 -5.207722,6.760714 -0.665057,1.315852 -1.414043,2.588103 -2.242432,3.809081 -2.229883,3.334916 -5.646602,5.709528 -9.565251,6.647828 -0.17763,0.05414 -0.351967,0.118516 -0.522088,0.192716 z M 1.7144016,44.11574 c 1.2784902,-0.219325 2.4632698,-0.471913 3.6681367,-0.611511 2.3963425,-0.272648 4.8060667,-0.405594 7.1890477,-0.724604 2.429009,-0.302021 4.790545,-1.002982 6.988133,-2.074127 1.165648,-0.538335 2.2017,-1.318102 3.038728,-2.287004 0.83703,-0.968901 1.455596,-2.104421 1.814249,-3.33031 0.247673,-0.85755 0.468501,-1.721753 0.669376,-2.592607 0.610338,-2.475217 0.806996,-5.033231 0.582362,-7.5718 C 25.38323,22.264646 24.995058,19.665387 24.48634,17.052925 23.686235,12.488844 21.977311,8.1292377 19.459333,4.2294072 19.345575,4.0565667 19.198287,3.8970209 18.950614,3.5646346 c 0,0.9306857 0.04022,1.6486368 0,2.3665981 -0.05719,0.8406118 -0.162201,1.6773446 -0.314631,2.5061866 -0.424686,2.0113787 -1.211625,3.9300437 -2.322658,5.6638717 -1.131192,1.887961 -2.349502,3.716049 -3.48738,5.597357 -1.506714,2.353222 -2.27987,5.096072 -2.222375,7.88426 -0.01491,0.975656 0.171973,1.944046 0.548935,2.845195 0.481975,-0.132947 0.896992,-0.265893 1.338752,-0.359027 1.662127,-0.468024 3.425976,-0.442643 5.073806,0.07317 1.760456,0.62492 2.73099,2.100635 2.423147,3.736008 -0.112318,0.749473 -0.439806,1.450947 -0.943175,2.020394 -0.503266,0.569449 -1.161226,0.982821 -1.894989,1.190479 -1.619854,0.511828 -3.038936,0 -4.330786,-0.970538 -0.936078,-0.738728 -1.704812,-1.665156 -2.255803,-2.719003 -0.120442,-0.225979 -0.261044,-0.438755 -0.388244,-0.664732 -0.103023,0.02774 -0.2037239,0.06325 -0.3012093,0.106336 -0.1807354,0.09313 -0.3547648,0.199471 -0.528805,0.305808 C 7.0576864,34.56172 5.0833041,36.422968 3.5417741,38.618067 2.9341002,39.532624 2.4077738,40.497942 1.9687604,41.503176 1.602424,42.323985 1.5131978,43.240485 1.7144016,44.11574 Z M 33.268458,37.414898 c 0.448445,-0.113091 0.816561,-0.192819 1.171409,-0.305807 3.249067,-1.022837 6.037448,-3.138516 7.885124,-5.982994 0.754643,-1.165405 1.449424,-2.36796 2.081773,-3.603061 1.248446,-2.487498 2.950583,-4.723534 5.020219,-6.594506 0.124866,-0.132639 0.23276,-0.280016 0.321318,-0.438754 -3.133665,-0.144306 -6.242849,0.610387 -8.956148,2.173811 -2.322864,1.379101 -4.477046,3.021024 -6.419244,4.892712 -2.168685,2.058569 -4.523639,3.914496 -7.035137,5.54424 -0.27493,0.151675 -0.513964,0.36005 -0.700953,0.611205 -0.187092,0.251052 -0.31782,0.539051 -0.383339,0.844552 -0.283671,1.431808 -0.862536,2.789826 -1.700182,3.988697 -0.197378,0.229253 -0.3279,0.507734 -0.377372,0.805354 -0.04958,0.297619 -0.01635,0.603017 0.09617,0.883136 0.435074,1.103587 0.870252,2.20042 1.37218,3.264093 0.72965,1.542239 1.512782,3.051215 2.269173,4.573599 0.05286,0.08546 0.110981,0.167641 0.174031,0.245935 0.763076,-1.369377 1.526153,-2.659028 2.202214,-3.988594 0.482696,-0.96839 0.905221,-1.965231 1.265109,-2.984896 0.297455,-0.703622 0.369865,-1.481036 0.20756,-2.226928 -0.265467,-0.01689 -0.529494,-0.05239 -0.789819,-0.106336 -0.61908,-0.137449 -1.224069,-0.331087 -1.807356,-0.578352 -0.35382,-0.147684 -0.645206,-0.412452 -0.824584,-0.749371 -0.179481,-0.33692 -0.235743,-0.725218 -0.159425,-1.098778 0.108306,-0.377141 0.328415,-0.713345 0.631629,-0.964705 0.303215,-0.251359 0.675547,-0.406208 1.068657,-0.444587 0.581745,-0.09375 1.178506,-0.0045 1.706663,0.255351 0.528157,0.259854 0.961174,0.67732 1.238469,1.193856 0.147288,0.212775 0.274518,0.472016 0.441863,0.791128 z M 11.708021,32.010256 c 0.348161,0.895315 0.884445,1.706605 1.573055,2.379934 0.550682,0.567299 1.243921,0.978112 2.008128,1.189865 0.363899,0.0915 0.743947,0.09989 1.111548,0.02446 0.367602,-0.07543 0.713191,-0.232527 1.010853,-0.459734 0.29766,-0.227103 0.539574,-0.518275 0.707638,-0.851613 0.167961,-0.333441 0.257752,-0.700246 0.262381,-1.072987 -0.06017,-0.970641 -0.816561,-1.422597 -1.666653,-1.642025 -1.672,-0.398737 -3.429267,-0.247061 -5.00695,0.4321 z"
     fill="#2e1b35"
     id="path1"
     style="stroke-width:1.02599" />
  <rect
     x="-6.3957"
     y="46.231289"
     width="2.8912778"
     height="2.0203307"
     rx="0.82143241"
     transform="matrix(0.81079593,-0.58532894,0.58914807,0.80802509,0,0)"
     fill="#e0d2e5"
     id="rect1"
     style="stroke-width:1.026" />
  <rect
     x="-13.863403"
     y="44.782066"
     width="4.5623932"
     height="2.0218043"
     rx="0.82083458"
     transform="matrix(0.71473231,-0.69939812,0.7029365,0.71125261,0,0)"
     fill="#e0d2e5"
     id="rect2"
     style="stroke-width:1.026" />
</svg>
