<svg width="28" height="28" viewBox="0 0 28 28" fill="none" xmlns="http://www.w3.org/2000/svg">
<g clip-path="url(#clip0_1376_785)">
<path d="M25.9492 0H2.05078C0.919861 0 0 0.919861 0 2.05078V8.30994C0 8.53638 0.183716 8.72009 0.410156 8.72009C0.636597 8.72009 0.820312 8.53638 0.820312 8.30994V2.05078C0.820312 1.37231 1.37231 0.820312 2.05078 0.820312H25.9492C26.6277 0.820312 27.1797 1.37231 27.1797 2.05078V25.9492C27.1797 26.6277 26.6277 27.1797 25.9492 27.1797H2.05078C1.37231 27.1797 0.820312 26.6277 0.820312 25.9492V10.1979C0.820312 9.9715 0.636597 9.78778 0.410156 9.78778C0.183716 9.78778 0 9.9715 0 10.1979V25.9492C0 27.0801 0.919861 28 2.05078 28H25.9492C27.0801 28 28 27.0801 28 25.9492V2.05078C28 0.919861 27.0801 0 25.9492 0Z" fill="#2E1B35"/>
<path d="M23.8899 12.6933C24.1165 12.6933 24.3 12.5096 24.3 12.2831V9.26483C24.3 6.19635 21.8036 3.69995 18.7352 3.69995H9.26483C6.19635 3.69995 3.69995 6.19635 3.69995 9.26483V18.7352C3.69995 21.8036 6.19635 24.3003 9.26483 24.3003H18.7352C21.8036 24.3003 24.3 21.8036 24.3 18.7352V14.1711C24.3 13.9445 24.1165 13.761 23.8899 13.761C23.6635 13.761 23.4797 13.9445 23.4797 14.1711V18.7352C23.4797 21.3514 21.3514 23.4799 18.7352 23.4799H9.26483C6.64859 23.4799 4.52026 21.3514 4.52026 18.7352V9.26483C4.52026 6.64859 6.64859 4.52026 9.26483 4.52026H18.7352C21.3514 4.52026 23.4797 6.64859 23.4797 9.26483V12.2829C23.4797 12.5096 23.6635 12.6933 23.8899 12.6933Z" fill="#2E1B35"/>
<path d="M15.195 22.0579H18.7352C20.5674 22.0579 22.0579 20.5674 22.0579 18.7352V9.26483C22.0579 7.43259 20.5674 5.94214 18.7352 5.94214H9.26483C7.43259 5.94214 5.94214 7.43259 5.94214 9.26483V18.7352C5.94214 20.5674 7.43259 22.0579 9.26483 22.0579H13.307C13.5337 22.0579 13.7172 21.8744 13.7172 21.6477C13.7172 21.4213 13.5337 21.2375 13.307 21.2375H9.26483C7.88504 21.2375 6.76245 20.115 6.76245 18.7352V9.26483C6.76245 7.88504 7.88504 6.76245 9.26483 6.76245H18.7352C20.115 6.76245 21.2375 7.88504 21.2375 9.26483V18.7352C21.2375 20.115 20.115 21.2375 18.7352 21.2375H15.195C14.9686 21.2375 14.7849 21.4213 14.7849 21.6477C14.7849 21.8744 14.9686 22.0579 15.195 22.0579Z" fill="#2E1B35"/>
<path d="M14 8.99756C11.2417 8.99756 8.99756 11.2417 8.99756 14C8.99756 16.7583 11.2417 19.0024 14 19.0024C16.7583 19.0024 19.0024 16.7583 19.0024 14C19.0024 11.2417 16.7583 8.99756 14 8.99756ZM14 18.1821C11.6939 18.1821 9.81787 16.306 9.81787 14C9.81787 11.6939 11.6939 9.81787 14 9.81787C16.306 9.81787 18.1821 11.6939 18.1821 14C18.1821 16.306 16.306 18.1821 14 18.1821Z" fill="#2E1B35"/>
<path d="M14 11.1746C12.442 11.1746 11.1746 12.442 11.1746 13.9999C11.1746 15.5579 12.442 16.8255 14 16.8255C15.558 16.8255 16.8254 15.5579 16.8254 13.9999C16.8254 12.442 15.558 11.1746 14 11.1746ZM14 16.005C12.8943 16.005 11.9949 15.1057 11.9949 13.9999C11.9949 12.8942 12.8943 11.9949 14 11.9949C15.1057 11.9949 16.0051 12.8942 16.0051 13.9999C16.0051 15.1057 15.1057 16.005 14 16.005Z" fill="#2E1B35"/>
<path d="M20.2523 8.96863C20.2523 8.23505 19.6555 7.63818 18.9219 7.63818C18.1883 7.63818 17.5914 8.23505 17.5914 8.96863C17.5914 9.70221 18.1883 10.2991 18.9219 10.2991C19.6555 10.2991 20.2523 9.70221 20.2523 8.96863ZM18.4117 8.96863C18.4117 8.68729 18.6405 8.4585 18.9219 8.4585C19.2032 8.4585 19.432 8.68729 19.432 8.96863C19.432 9.24997 19.203 9.47876 18.9219 9.47876C18.6405 9.47876 18.4117 9.24997 18.4117 8.96863Z" fill="#2E1B35"/>
</g>
<defs>
<clipPath id="clip0_1376_785">
<rect width="28" height="28" fill="white"/>
</clipPath>
</defs>
</svg>
