<svg width="52" height="52" viewBox="0 0 52 52" fill="none" xmlns="http://www.w3.org/2000/svg">
<circle cx="26" cy="26" r="26" fill="#E0D2E5"/>
<path d="M26.2675 16.5651C28.1238 16.5651 29.6286 15.0603 29.6286 13.2041C29.6286 11.3478 28.1238 9.84302 26.2675 9.84302C24.4113 9.84302 22.9065 11.3478 22.9065 13.2041C22.9065 15.0603 24.4113 16.5651 26.2675 16.5651Z" stroke="black" stroke-width="1.3" stroke-miterlimit="10" stroke-linecap="round" stroke-linejoin="round"/>
<path d="M26.2676 20.0402C30.0431 20.0402 33.1036 16.9796 33.1036 13.2042C33.1036 9.42875 30.0431 6.36816 26.2676 6.36816C22.4922 6.36816 19.4316 9.42875 19.4316 13.2042C19.4316 16.9796 22.4922 20.0402 26.2676 20.0402Z" stroke="black" stroke-width="1.3" stroke-miterlimit="10" stroke-linecap="round" stroke-linejoin="round"/>
<path d="M38.1859 48.4517C38.1859 47.3011 37.2532 46.3684 36.1026 46.3684H16.4324C15.2818 46.3684 14.3491 47.3011 14.3491 48.4517C14.3491 49.6023 15.2818 50.535 16.4324 50.535H36.1025C37.2531 50.535 38.1859 49.6023 38.1859 48.4517Z" stroke="black" stroke-width="1.3" stroke-miterlimit="10" stroke-linecap="round" stroke-linejoin="round"/>
<path d="M26.2676 6.36807C26.9943 6.36807 27.694 6.48242 28.3509 6.69248V4.0833C28.3509 2.93271 27.4182 2 26.2676 2C25.117 2 24.1843 2.93271 24.1843 4.0833V6.69238C24.8413 6.48242 25.541 6.36807 26.2676 6.36807Z" stroke="black" stroke-width="1.3" stroke-miterlimit="10" stroke-linecap="round" stroke-linejoin="round"/>
<path d="M29.3239 40.9409V35.6118C29.3239 33.9239 27.9556 32.5557 26.2677 32.5557C24.5798 32.5557 23.2114 33.9239 23.2114 35.6118V40.9409H29.3239Z" stroke="black" stroke-width="1.3" stroke-miterlimit="10" stroke-linecap="round" stroke-linejoin="round"/>
<path d="M34.1452 46.3686V43.6416C34.1452 42.1502 32.9362 40.9412 31.4448 40.9412H21.0903C19.5989 40.9412 18.3899 42.1502 18.3899 43.6416V46.3686H34.1452Z" stroke="black" stroke-width="1.3" stroke-miterlimit="10" stroke-linecap="round" stroke-linejoin="round"/>
<path d="M42.8578 35.7973C46.4382 35.7973 49.3406 32.8949 49.3406 29.3145H36.375C36.375 32.8948 39.2775 35.7973 42.8578 35.7973Z" stroke="black" stroke-width="1.3" stroke-miterlimit="10" stroke-linecap="round" stroke-linejoin="round"/>
<path d="M35.1804 29.3145H50.5351" stroke="black" stroke-width="1.3" stroke-miterlimit="10" stroke-linecap="round" stroke-linejoin="round"/>
<path d="M36.375 29.3143L42.8578 18.5449L49.3406 29.3143" stroke="black" stroke-width="1.3" stroke-miterlimit="10" stroke-linecap="round" stroke-linejoin="round"/>
<path d="M42.8579 18.5449V10.2441" stroke="black" stroke-width="1.3" stroke-miterlimit="10" stroke-linecap="round" stroke-linejoin="round"/>
<path d="M9.67736 35.7973C6.09695 35.7973 3.19458 32.8949 3.19458 29.3145H16.1601C16.1601 32.8948 13.2578 35.7973 9.67736 35.7973Z" stroke="black" stroke-width="1.3" stroke-miterlimit="10" stroke-linecap="round" stroke-linejoin="round"/>
<path d="M17.3546 29.3145H2" stroke="black" stroke-width="1.3" stroke-miterlimit="10" stroke-linecap="round" stroke-linejoin="round"/>
<path d="M16.1601 29.3143L9.67736 18.5449L3.19458 29.3143" stroke="black" stroke-width="1.3" stroke-miterlimit="10" stroke-linecap="round" stroke-linejoin="round"/>
<path d="M9.67725 18.5449V10.2441" stroke="black" stroke-width="1.3" stroke-miterlimit="10" stroke-linecap="round" stroke-linejoin="round"/>
<path d="M19.4317 13.2042C19.4317 12.4775 19.546 11.7778 19.7561 11.1208H7.24201C6.09142 11.1208 5.15869 12.0536 5.15869 13.2042C5.15869 14.3548 6.09142 15.2875 7.24201 15.2875H19.7561C19.546 14.6305 19.4317 13.9307 19.4317 13.2042Z" stroke="black" stroke-width="1.3" stroke-miterlimit="10" stroke-linecap="round" stroke-linejoin="round"/>
<path d="M36.2876 11.1206H32.7791C32.9891 11.7776 33.1035 12.4774 33.1035 13.2039C33.1035 13.9305 32.9891 14.6303 32.7791 15.2872H45.2931C46.4437 15.2872 47.3765 14.3545 47.3765 13.2039C47.3765 12.0533 46.4437 11.1206 45.2931 11.1206H39.7055" stroke="black" stroke-width="1.3" stroke-miterlimit="10" stroke-linecap="round" stroke-linejoin="round"/>
<path d="M28.351 24.5587V19.7158C27.694 19.9259 26.9943 20.0402 26.2676 20.0402C25.541 20.0402 24.8413 19.9259 24.1843 19.7158V33.3769C24.7302 32.8679 25.4624 32.5559 26.2676 32.5559C27.0729 32.5559 27.8051 32.8678 28.351 33.3769V27.9767" stroke="black" stroke-width="1.3" stroke-miterlimit="10" stroke-linecap="round" stroke-linejoin="round"/>
</svg>
