<svg width="52" height="52" viewBox="0 0 52 52" fill="none" xmlns="http://www.w3.org/2000/svg">
<circle cx="26" cy="26" r="26" fill="#E0D2E5"/>
<g clip-path="url(#clip0_1232_1187)">
<path d="M48.7416 32.2808C49.2992 32.0931 50.9959 31.5219 50.9999 29.7356C51.0025 28.5421 50.1538 27.8856 49.5922 27.4512C48.5375 26.6353 47.8521 25.9211 47.3005 25.063C47.0372 24.6533 47.034 24.1171 47.2925 23.6971C47.3346 23.6284 47.3778 23.5597 47.4211 23.4908C47.8346 22.8327 48.3034 22.0867 48.1034 21.2234C48.0327 20.9187 47.8976 20.6318 47.7546 20.3279C47.4987 19.7847 47.2087 19.1689 47.1462 18.2053C46.9065 14.5131 45.3626 11.3135 42.6812 8.95211C40.2414 6.80329 36.9588 5.40632 33.1888 4.91238C32.788 4.86062 32.4201 5.14226 32.3674 5.54343C32.3149 5.94451 32.5974 6.31228 32.9985 6.36482C38.8062 7.12575 45.1886 10.6608 45.6844 18.3002C45.7649 19.5413 46.149 20.3568 46.4293 20.9521C46.5428 21.1934 46.641 21.4017 46.6763 21.5543C46.7388 21.8235 46.4424 22.2952 46.1808 22.7115C46.135 22.7844 46.0893 22.857 46.0446 22.9296C45.4931 23.8264 45.5022 24.9746 46.0681 25.8551C46.7154 26.862 47.5012 27.6858 48.6958 28.6099C49.3553 29.1201 49.5358 29.3613 49.5349 29.7324C49.5343 30.0078 49.5333 30.4687 48.2742 30.8925C47.2811 31.2268 47.0342 31.8799 46.9753 32.2395C46.812 33.2372 47.6334 34.1566 48.0904 34.5035C48.1236 34.5287 48.1648 34.571 48.1728 34.6295C48.1827 34.7024 48.1423 34.8044 48.0619 34.9094C47.7618 35.3019 47.4158 35.4027 47.3578 35.4172C47.0482 35.4589 46.8146 35.6904 46.7534 35.9974C46.6916 36.307 46.8512 36.6188 47.1257 36.775C47.2628 36.853 47.5837 37.0511 47.6025 37.2062C47.6103 37.2709 47.5502 37.358 47.4915 37.3783C47.2736 37.4537 47.1235 37.5275 46.7208 37.772C46.1549 38.1655 45.9608 38.9638 46.288 39.5514C46.5292 39.9847 46.8299 40.4583 46.6386 41.3005C46.3595 42.4403 45.4976 43.0914 43.9268 43.3498C43.1829 43.4721 41.5121 43.2365 39.8965 43.0084C39.5683 42.962 39.2351 42.9151 38.901 42.8696C36.5777 42.5531 34.7994 43.3334 33.6164 45.1888C32.6562 46.6947 32.257 48.676 31.9655 50.1226C31.8857 50.5191 32.1423 50.9054 32.5388 50.9852C32.5876 50.9951 32.6363 50.9998 32.6842 50.9997C33.0257 50.9997 33.3314 50.7596 33.4015 50.4118C34.1324 46.7838 35.0363 43.8203 38.7034 44.3209C39.0351 44.366 39.3659 44.4127 39.6919 44.4587C41.5738 44.7244 43.1993 44.9535 44.1646 44.795C46.326 44.4394 47.6371 43.381 48.0613 41.6489C48.3868 40.3203 47.9316 39.4874 47.621 38.9335C47.7176 38.88 47.782 38.8475 48.0833 38.718C48.7414 38.4274 49.1417 37.7333 49.0565 37.03C49.0233 36.7558 48.9292 36.5077 48.7691 36.2792C48.9231 36.1493 49.0785 35.9913 49.2254 35.7992C49.6353 35.2632 49.6686 34.7604 49.6244 34.4332C49.5656 33.9987 49.3354 33.6091 48.9758 33.3364C48.6483 33.0879 48.3926 32.6482 48.4209 32.4759C48.4268 32.4403 48.5191 32.3557 48.7416 32.2808Z" fill="black"/>
<path d="M16.0972 37.4133C15.7129 37.5398 15.504 37.9538 15.6305 38.338C16.6779 41.5207 16.397 46.1013 14.9148 50.0078C14.7713 50.3859 14.9615 50.8088 15.3399 50.9524C15.4254 50.9848 15.5131 51.0002 15.5995 51.0002C15.8949 51.0002 16.1734 50.82 16.2845 50.5273C17.9029 46.2617 18.1856 41.4155 17.022 37.88C16.8953 37.4959 16.4817 37.287 16.0972 37.4133Z" fill="black"/>
<path d="M34.8287 19.2071C34.4248 19.1678 34.0675 19.4614 34.0276 19.8638C33.2238 27.9828 26.4559 34.1053 18.2851 34.1053C9.56178 34.1053 2.46484 27.0084 2.46484 18.2851C2.46484 9.56178 9.56178 2.46484 18.2851 2.46484C26.3983 2.46484 33.1612 8.53952 34.0162 16.5951C34.059 16.9971 34.417 17.2887 34.8218 17.246C35.224 17.2033 35.5156 16.8426 35.4728 16.4404C35.0251 12.2219 33.0387 8.32429 29.8799 5.46541C26.6977 2.58583 22.5801 1 18.2851 1C8.75407 1 1 8.75407 1 18.2851C1 27.8161 8.75407 35.5702 18.2851 35.5702C22.6014 35.5702 26.7344 33.9705 29.9226 31.0658C33.0894 28.1807 35.065 24.2536 35.4854 20.0082C35.5253 19.6056 35.2312 19.247 34.8287 19.2071Z" fill="black"/>
<path d="M23.9544 12.4915V11.5469H24.7376C25.4068 11.5469 25.9513 11.0024 25.9513 10.3332V8.56133C25.9513 7.89209 25.4068 7.34766 24.7376 7.34766H18.7278C18.3232 7.34766 17.9954 7.67549 17.9954 8.08008C17.9954 8.48467 18.3232 8.8125 18.7278 8.8125H24.4864V10.082H12.0841V8.8125H15.3099C15.7145 8.8125 16.0423 8.48467 16.0423 8.08008C16.0423 7.67549 15.7145 7.34766 15.3099 7.34766H11.8329C11.1637 7.34766 10.6192 7.89209 10.6192 8.56133V10.3333C10.6192 11.0025 11.1637 11.547 11.8329 11.547H12.6161V12.4916C12.6161 14.8072 13.7767 16.9839 15.675 18.2851C15.1311 18.6569 14.6441 19.1015 14.2232 19.6113C13.9656 19.9232 14.0097 20.385 14.3217 20.6425C14.4582 20.7552 14.6234 20.8102 14.7876 20.8102C14.9985 20.8102 15.208 20.7194 15.3527 20.544C15.7693 20.0396 16.2675 19.6156 16.8338 19.284C17.1869 19.0771 17.4063 18.6943 17.4063 18.2853C17.4063 17.8762 17.1869 17.4936 16.8336 17.2864C15.1356 16.292 14.0809 14.4548 14.0809 12.4915V11.5469H22.4896V12.4915C22.4896 14.4548 21.4348 16.292 19.7367 17.2865C19.3836 17.4935 19.1642 17.8762 19.1642 18.2853C19.1642 18.6943 19.3836 19.077 19.7369 19.2841C21.4349 20.2785 22.4896 22.1157 22.4896 24.079V25.0234H21.5113C21.4579 23.2953 20.1218 20.8308 18.2908 20.8308C18.2889 20.8308 18.2869 20.8308 18.285 20.8308C17.6687 20.8308 17.0611 21.1119 16.5274 21.644C15.7006 22.4686 15.0955 23.8722 15.0601 25.0233H14.0809V24.0787C14.0809 23.8095 14.1006 23.5384 14.1396 23.2729C14.1984 22.8728 13.9216 22.5007 13.5213 22.4419C13.122 22.384 12.7491 22.6599 12.6902 23.0603C12.641 23.3959 12.616 23.7385 12.616 24.0787V25.0234H11.8328C11.1636 25.0234 10.6191 25.5679 10.6191 26.2371V28.0091C10.6191 28.6783 11.1636 29.2228 11.8328 29.2228H24.7376C25.4068 29.2228 25.9513 28.6783 25.9513 28.0091V26.2371C25.9513 25.5679 25.4068 25.0234 24.7376 25.0234H23.9544V24.0788C23.9544 21.763 22.7937 19.5862 20.8952 18.2852C22.7937 16.984 23.9544 14.8071 23.9544 12.4915ZM17.5617 22.6813C17.7384 22.5053 18.0069 22.2957 18.287 22.2957H18.2887C19.0793 22.2957 19.99 23.9054 20.0462 25.0235H16.5253C16.5643 24.2544 17.0136 23.2279 17.5617 22.6813ZM24.4863 27.7578H12.084V26.4883H24.4863V27.7578Z" fill="black"/>
</g>
<defs>
<clipPath id="clip0_1232_1187">
<rect width="50" height="50" fill="white" transform="translate(1 1)"/>
</clipPath>
</defs>
</svg>
