<svg width="52" height="52" viewBox="0 0 52 52" fill="none" xmlns="http://www.w3.org/2000/svg">
<circle cx="26" cy="26" r="26" fill="#E0D2E5"/>
<g clip-path="url(#clip0_1232_938)">
<mask id="mask0_1232_938" style="mask-type:luminance" maskUnits="userSpaceOnUse" x="1" y="1" width="50" height="50">
<path d="M1 1.00014H50.9999V51H1V1.00014Z" fill="white"/>
</mask>
<g mask="url(#mask0_1232_938)">
<path d="M16.6483 27.1442C16.3341 27.1835 16.042 27.3266 15.8185 27.5508L13.6216 29.7478" stroke="#2E1B35" stroke-width="1.3" stroke-miterlimit="10" stroke-linecap="round" stroke-linejoin="round"/>
<path d="M21.5547 37.9541L24.2042 35.3046C24.2512 35.2576 24.2942 35.2081 24.3333 35.1566" stroke="#2E1B35" stroke-width="1.3" stroke-miterlimit="10" stroke-linecap="round" stroke-linejoin="round"/>
<path d="M7.2627 50.0037L11.4091 45.8573" stroke="#2E1B35" stroke-width="1.3" stroke-miterlimit="10" stroke-linecap="round" stroke-linejoin="round"/>
<path d="M11.1774 32.192L7.99676 35.3726C7.20605 36.1633 6.69476 37.1903 6.54042 38.2978L6.31893 39.8869L1.73242 44.4734" stroke="#2E1B35" stroke-width="1.3" stroke-miterlimit="10" stroke-linecap="round" stroke-linejoin="round"/>
<path d="M22.3623 33.1116L17.3433 38.1306" stroke="#2E1B35" stroke-width="1.3" stroke-miterlimit="10" stroke-linecap="round" stroke-linejoin="round"/>
<path d="M20.3448 31.0942L15.2832 36.1558" stroke="#2E1B35" stroke-width="1.3" stroke-miterlimit="10" stroke-linecap="round" stroke-linejoin="round"/>
<path d="M18.2962 29.1081L13.405 33.9993" stroke="#2E1B35" stroke-width="1.3" stroke-miterlimit="10" stroke-linecap="round" stroke-linejoin="round"/>
<path d="M13.3976 40.0921C14.5695 39.8035 15.8594 40.1171 16.775 41.0328L17.1923 41.45L19.7811 38.8612C20.7127 37.9296 22.2232 37.9296 23.1548 38.8612C23.2966 39.003 23.3789 39.1935 23.385 39.3939C23.3911 39.5943 23.3205 39.7894 23.1876 39.9395L18.8924 44.6145C18.4165 45.1324 17.8194 45.524 17.1549 45.7542L15.1125 46.4615C14.5051 46.6718 13.8396 46.6361 13.2582 46.3621L11.331 45.4534L9.32129 43.4436" stroke="#2E1B35" stroke-width="1.3" stroke-miterlimit="10" stroke-linecap="round" stroke-linejoin="round"/>
<path d="M35.9575 24.6321C36.0381 24.5788 36.1131 24.5176 36.1813 24.4493L44.0031 16.6275C44.7937 15.8368 45.305 14.8098 45.4594 13.7023L45.6808 12.1133L50.2674 7.52676" stroke="#2E1B35" stroke-width="1.3" stroke-miterlimit="10" stroke-linecap="round" stroke-linejoin="round"/>
<path d="M30.5255 13.966L27.7957 16.6958C27.2387 17.2528 27.2387 18.156 27.7957 18.7131C27.8616 18.7791 27.9324 18.8372 28.0068 18.8875" stroke="#2E1B35" stroke-width="1.3" stroke-miterlimit="10" stroke-linecap="round" stroke-linejoin="round"/>
<path d="M44.7374 1.99659L40.6084 6.12549" stroke="#2E1B35" stroke-width="1.3" stroke-miterlimit="10" stroke-linecap="round" stroke-linejoin="round"/>
<path d="M30.0232 18.5029L34.6565 13.8696" stroke="#2E1B35" stroke-width="1.3" stroke-miterlimit="10" stroke-linecap="round" stroke-linejoin="round"/>
<path d="M33.2751 19.2859L36.7166 15.8444" stroke="#2E1B35" stroke-width="1.3" stroke-miterlimit="10" stroke-linecap="round" stroke-linejoin="round"/>
<path d="M35.228 21.3679L38.5951 18.0008" stroke="#2E1B35" stroke-width="1.3" stroke-miterlimit="10" stroke-linecap="round" stroke-linejoin="round"/>
<path d="M38.6022 11.9081C37.4303 12.1966 36.1405 11.8831 35.2249 10.9673L34.8076 10.5502L32.2187 13.1389C31.2872 14.0706 29.7767 14.0706 28.845 13.1389C28.7033 12.9972 28.6209 12.8066 28.6149 12.6062C28.6088 12.4059 28.6794 12.2107 28.8123 12.0606L33.1075 7.38561C33.5834 6.86775 34.1804 6.47616 34.845 6.24597L36.8874 5.53865C37.4947 5.32837 38.1603 5.36405 38.7417 5.63806L40.6689 6.54675L42.6786 8.55651" stroke="#2E1B35" stroke-width="1.3" stroke-miterlimit="10" stroke-linecap="round" stroke-linejoin="round"/>
<path d="M23.3086 18.7129L22.4316 17.8359C22.9887 18.393 23.8919 18.393 24.449 17.8359C25.006 17.2788 25.006 16.3756 24.449 15.8185L22.8687 14.2382" stroke="#2E1B35" stroke-width="1.3" stroke-miterlimit="10" stroke-linecap="round" stroke-linejoin="round"/>
<path d="M14.0967 21.6055L16.1509 23.6597" stroke="#2E1B35" stroke-width="1.3" stroke-miterlimit="10" stroke-linecap="round" stroke-linejoin="round"/>
<path d="M1.99634 7.26276L6.12875 11.3952L6.30697 11.5735" stroke="#2E1B35" stroke-width="1.3" stroke-miterlimit="10" stroke-linecap="round" stroke-linejoin="round"/>
<path d="M20.4246 11.7942L16.6274 7.99694C15.8367 7.20623 14.8097 6.69493 13.7022 6.54059L12.1131 6.31911L7.52661 1.7326" stroke="#2E1B35" stroke-width="1.3" stroke-miterlimit="10" stroke-linecap="round" stroke-linejoin="round"/>
<path d="M17.2421 20.7163L13.8694 17.3436" stroke="#2E1B35" stroke-width="1.3" stroke-miterlimit="10" stroke-linecap="round" stroke-linejoin="round"/>
<path d="M19.4479 18.8872L15.8442 15.2835" stroke="#2E1B35" stroke-width="1.3" stroke-miterlimit="10" stroke-linecap="round" stroke-linejoin="round"/>
<path d="M22.2973 17.7017L18.0007 13.4051" stroke="#2E1B35" stroke-width="1.3" stroke-miterlimit="10" stroke-linecap="round" stroke-linejoin="round"/>
<path d="M11.9079 13.3978C12.1965 14.5697 11.8829 15.8595 10.9672 16.7751L10.55 17.1924L13.1388 19.7813C14.0704 20.7128 14.0704 22.2233 13.1388 23.155C12.997 23.2967 12.8065 23.3791 12.6061 23.3851C12.4057 23.3912 12.2106 23.3206 12.0605 23.1877L7.38548 18.8925C6.86762 18.4166 6.47602 17.8196 6.24583 17.155L5.53851 15.1126C5.32823 14.5053 5.36391 13.8397 5.63792 13.2583L6.54661 11.3311L8.55637 9.32144" stroke="#2E1B35" stroke-width="1.3" stroke-miterlimit="10" stroke-linecap="round" stroke-linejoin="round"/>
<path d="M27.1917 35.5788C27.259 35.8065 27.3825 36.0137 27.5507 36.1814L35.3725 44.0032C36.1633 44.7939 37.1902 45.3052 38.2978 45.4596L39.8867 45.681L44.4732 50.2676" stroke="#2E1B35" stroke-width="1.3" stroke-miterlimit="10" stroke-linecap="round" stroke-linejoin="round"/>
<path d="M38.0043 30.4958L35.3042 27.7958C35.2117 27.703 35.1068 27.6234 34.9924 27.5592" stroke="#2E1B35" stroke-width="1.3" stroke-miterlimit="10" stroke-linecap="round" stroke-linejoin="round"/>
<path d="M50.0034 44.7373L45.8762 40.6101" stroke="#2E1B35" stroke-width="1.3" stroke-miterlimit="10" stroke-linecap="round" stroke-linejoin="round"/>
<path d="M33.2871 29.8133L38.1306 34.6567" stroke="#2E1B35" stroke-width="1.3" stroke-miterlimit="10" stroke-linecap="round" stroke-linejoin="round"/>
<path d="M31.1948 31.7558L36.1556 36.7166" stroke="#2E1B35" stroke-width="1.3" stroke-miterlimit="10" stroke-linecap="round" stroke-linejoin="round"/>
<path d="M29.2371 33.8329L33.9992 38.595" stroke="#2E1B35" stroke-width="1.3" stroke-miterlimit="10" stroke-linecap="round" stroke-linejoin="round"/>
<path d="M43.4436 42.6787L45.4534 40.669L46.362 38.7418C46.6361 38.1604 46.6717 37.4949 46.4614 36.8875L45.7541 34.8451C45.5239 34.1806 45.1323 33.5835 44.6144 33.1076L43.7699 32.3317" stroke="#2E1B35" stroke-width="1.3" stroke-miterlimit="10" stroke-linecap="round" stroke-linejoin="round"/>
<path d="M41.2245 29.9931L39.9393 28.8124C39.7892 28.6795 39.5941 28.6089 39.3937 28.6149C39.1933 28.621 39.0028 28.7033 38.861 28.8451C37.9295 29.7767 37.9295 31.2872 38.861 32.2188L41.4499 34.8077L41.0326 35.2249C40.1169 36.1406 39.8033 37.4304 40.0919 38.6023" stroke="#2E1B35" stroke-width="1.3" stroke-miterlimit="10" stroke-linecap="round" stroke-linejoin="round"/>
<path d="M34.0511 28.435C36.2694 26.2112 36.2678 22.6103 34.0461 20.3886C31.8244 18.1669 28.2234 18.1653 25.9996 20.3838C23.7758 18.1653 20.1748 18.1669 17.9531 20.3886C15.7314 22.6103 15.7299 26.2112 17.948 28.435L25.227 35.7142C25.6537 36.1408 26.3455 36.1408 26.7722 35.7142L34.0511 28.435Z" stroke="#2E1B35" stroke-width="1.3" stroke-miterlimit="10" stroke-linecap="round" stroke-linejoin="round"/>
</g>
</g>
<defs>
<clipPath id="clip0_1232_938">
<rect width="50" height="50" fill="white" transform="translate(1 1)"/>
</clipPath>
</defs>
</svg>
