<svg width="28" height="28" viewBox="0 0 28 28" fill="none" xmlns="http://www.w3.org/2000/svg">
<g clip-path="url(#clip0_1376_779)">
<path d="M16.1262 27.1797H2.05078C1.37231 27.1797 0.820312 26.6277 0.820312 25.9492V2.05078C0.820312 1.37231 1.37231 0.820312 2.05078 0.820312H6.26279C6.48944 0.820312 6.67294 0.636597 6.67294 0.410156C6.67294 0.183716 6.48944 0 6.26279 0H2.05078C0.919861 0 0 0.919861 0 2.05078V25.9492C0 27.0801 0.919861 28 2.05078 28H16.1262C16.3526 28 16.5363 27.8163 16.5363 27.5898C16.5363 27.3634 16.3526 27.1797 16.1262 27.1797Z" fill="#2E1B35"/>
<path d="M6.78253 9.81641C6.25467 9.81641 5.8255 10.2458 5.8255 10.7734V22.161C5.8255 22.6887 6.25467 23.1181 6.78253 23.1181H9.07941C9.60706 23.1181 10.0364 22.6887 10.0364 22.161V10.7734C10.0364 10.2458 9.60706 9.81641 9.07941 9.81641H6.78253ZM9.21613 10.7734V22.161C9.21613 22.2365 9.1546 22.2978 9.07941 22.2978H6.78253C6.70712 22.2978 6.64581 22.2365 6.64581 22.161V10.7734C6.64581 10.698 6.70712 10.6367 6.78253 10.6367H9.07941C9.15482 10.6367 9.21613 10.698 9.21613 10.7734Z" fill="#2E1B35"/>
<path d="M17.9635 14.7111V22.161C17.9635 22.6887 18.3929 23.118 18.9206 23.118H21.2174C21.7453 23.118 22.1745 22.6887 22.1745 22.161V12.9128C22.1745 11.2054 20.7855 9.81638 19.078 9.81638C18.3081 9.81638 17.567 10.0975 16.9911 10.6083L16.145 11.3585V10.7732C16.145 10.2455 15.7156 9.81616 15.1879 9.81616H12.8911C12.3634 9.81616 11.934 10.2455 11.934 10.7732V17.378C11.934 17.6044 12.1175 17.7881 12.3442 17.7881C12.5706 17.7881 12.7543 17.6044 12.7543 17.378V10.7734C12.7543 10.698 12.8156 10.6367 12.8911 10.6367H15.1879C15.2633 10.6367 15.3246 10.698 15.3246 10.7734V11.5696C15.3246 11.859 15.4885 12.1126 15.7525 12.2312C16.0164 12.3499 16.3148 12.3044 16.5314 12.1124L17.5352 11.2222C17.961 10.8445 18.5089 10.6367 19.078 10.6367C20.333 10.6367 21.3542 11.6578 21.3542 12.9131V22.161C21.3542 22.2364 21.2928 22.2977 21.2174 22.2977H18.9206C18.8454 22.2977 18.7838 22.2364 18.7838 22.161V14.7111C18.7838 14.0282 18.3987 13.4264 17.7785 13.1404C17.1586 12.8543 16.4507 12.9521 15.9313 13.3954C15.5457 13.7246 15.3246 14.2042 15.3246 14.7111V22.161C15.3246 22.2364 15.2633 22.2977 15.1879 22.2977H12.8911C12.8156 22.2977 12.7543 22.2364 12.7543 22.161V19.266C12.7543 19.0396 12.5706 18.8558 12.3442 18.8558C12.1175 18.8558 11.934 19.0396 11.934 19.266V22.161C11.934 22.6887 12.3634 23.118 12.8911 23.118H15.1879C15.7156 23.118 16.145 22.6887 16.145 22.161V14.7111C16.145 14.4445 16.2612 14.1924 16.4639 14.0194C16.741 13.7827 17.1041 13.7325 17.435 13.8853C17.7659 14.0378 17.9635 14.3467 17.9635 14.7111Z" fill="#2E1B35"/>
<path d="M7.93097 4.88184C6.7851 4.88184 5.85284 5.81409 5.85284 6.95996C5.85284 8.10583 6.7851 9.03809 7.93097 9.03809C9.07684 9.03809 10.0091 8.10583 10.0091 6.95996C10.0091 5.81409 9.07684 4.88184 7.93097 4.88184ZM7.93097 8.21777C7.23734 8.21777 6.67316 7.65338 6.67316 6.95996C6.67316 6.26633 7.23734 5.70215 7.93097 5.70215C8.62439 5.70215 9.18878 6.26633 9.18878 6.95996C9.18878 7.65338 8.62439 8.21777 7.93097 8.21777Z" fill="#2E1B35"/>
<path d="M25.9492 0H8.26825C8.0416 0 7.85809 0.183716 7.85809 0.410156C7.85809 0.636597 8.0416 0.820312 8.26825 0.820312H25.9492C26.6277 0.820312 27.1797 1.37231 27.1797 2.05078V25.9492C27.1797 26.6277 26.6277 27.1797 25.9492 27.1797H18.0142C17.7877 27.1797 17.604 27.3634 17.604 27.5898C17.604 27.8163 17.7877 28 18.0142 28H25.9492C27.0801 28 28 27.0801 28 25.9492V2.05078C28 0.919861 27.0801 0 25.9492 0Z" fill="#2E1B35"/>
</g>
<defs>
<clipPath id="clip0_1376_779">
<rect width="28" height="28" fill="white"/>
</clipPath>
</defs>
</svg>
