<svg width="28" height="28" viewBox="0 0 28 28" fill="none" xmlns="http://www.w3.org/2000/svg">
<g opacity="0.9">
<path d="M14.8546 2.23967C14.5735 2.21212 14.2887 2.19823 14 2.198C13.7116 2.198 13.4267 2.2119 13.1454 2.23972C7.5151 2.79158 4.45649 9.17869 7.1386 14.1598L13.1266 25.2804C13.2116 25.4381 13.3376 25.5699 13.4914 25.6617C13.6451 25.7536 13.8209 25.8021 14 25.8021C14.1791 25.8021 14.3549 25.7536 14.5087 25.6617C14.6625 25.5699 14.7885 25.4381 14.8734 25.2804L20.8615 14.1598C23.5436 9.17864 20.4849 2.79154 14.8546 2.23967Z" stroke="#2E1B35" stroke-linecap="round" stroke-linejoin="bevel"/>
<path d="M14 7.21252H14C12.4381 7.21252 11.1719 8.4787 11.1719 10.0406V10.0406C11.1719 11.6025 12.4381 12.8687 14 12.8687H14C15.5619 12.8687 16.8281 11.6025 16.8281 10.0406V10.0406C16.8281 8.4787 15.5619 7.21252 14 7.21252Z" stroke="#2E1B35" stroke-linecap="round" stroke-linejoin="bevel"/>
</g>
</svg>
