<svg width="52" height="52" viewBox="0 0 52 52" fill="none" xmlns="http://www.w3.org/2000/svg">
<circle cx="26" cy="26" r="26" fill="#E0D2E5"/>
<path d="M46.1051 38.4172H39.7363" stroke="black" stroke-width="1.3" stroke-miterlimit="10" stroke-linecap="round" stroke-linejoin="round"/>
<path d="M45.3408 44.928H39.7363" stroke="black" stroke-width="1.3" stroke-miterlimit="10" stroke-linecap="round" stroke-linejoin="round"/>
<path d="M46.7071 41.6726H39.7363" stroke="black" stroke-width="1.3" stroke-miterlimit="10" stroke-linecap="round" stroke-linejoin="round"/>
<path d="M6.36035 17.5688V21.92" stroke="black" stroke-width="1.3" stroke-miterlimit="10" stroke-linecap="round" stroke-linejoin="round"/>
<path d="M6.36036 25.0942V27.9671C6.36036 28.225 6.30812 28.481 6.20538 28.7182L4.50703 32.6459C4.4043 32.8831 4.35205 33.1384 4.35205 33.397V44.7028C4.35205 45.6149 5.09805 46.39 6.01007 46.3728C6.89474 46.3565 7.60734 45.6338 7.60734 44.7456V46.7077C7.60734 47.6232 8.35588 48.3974 9.27142 48.3768C10.1552 48.3571 10.8626 47.6343 10.8626 46.7496V48.8649C10.8626 49.777 11.6094 50.5521 12.5215 50.535C13.4062 50.5186 14.1179 49.7967 14.1179 48.9077V46.1054C14.1179 47.0039 14.8467 47.7327 15.746 47.7327C16.1956 47.7327 16.6015 47.5503 16.8962 47.2556C17.1908 46.9619 17.3732 46.5542 17.3732 46.1054V37.8876C17.3732 37.0633 18.0414 36.3951 18.8657 36.3951H22.0023L20.5926 33.3779C20.5112 33.2032 20.4042 33.0431 20.274 32.9009L16.6359 28.9261C16.3174 28.5776 16.14 28.1219 16.14 27.6492V18.8657" stroke="black" stroke-width="1.3" stroke-miterlimit="10" stroke-linecap="round" stroke-linejoin="round"/>
<path d="M14.1179 46.1051V39.7363" stroke="black" stroke-width="1.3" stroke-miterlimit="10" stroke-linecap="round" stroke-linejoin="round"/>
<path d="M7.60693 45.3408V39.7363" stroke="black" stroke-width="1.3" stroke-miterlimit="10" stroke-linecap="round" stroke-linejoin="round"/>
<path d="M10.8625 46.7071V39.7363" stroke="black" stroke-width="1.3" stroke-miterlimit="10" stroke-linecap="round" stroke-linejoin="round"/>
<path d="M35.162 6.36035H30.6252" stroke="black" stroke-width="1.3" stroke-miterlimit="10" stroke-linecap="round" stroke-linejoin="round"/>
<path d="M27.4511 6.36036H24.5683C24.3105 6.36036 24.0544 6.30812 23.8172 6.20538L19.8895 4.50703C19.6523 4.4043 19.3971 4.35205 19.1385 4.35205H7.83264C6.92052 4.35205 6.14542 5.09795 6.16261 6.01007C6.17892 6.89474 6.90168 7.60734 7.78987 7.60734H5.82765C4.91211 7.60734 4.13789 8.35588 4.1585 9.27142C4.17822 10.1552 4.90098 10.8626 5.78575 10.8626H3.67031C2.7582 10.8626 1.98309 11.6094 2.00028 12.5215C2.01659 13.4062 2.73857 14.1179 3.62754 14.1179H6.4298C5.53136 14.1179 4.80254 14.8467 4.80254 15.7461C4.80254 16.1957 4.98497 16.6016 5.2796 16.8963C5.57335 17.1909 5.98107 17.3733 6.4298 17.3733H14.6476C15.4719 17.3733 16.1401 18.0415 16.1401 18.8658V22.0024L19.1573 20.5927C19.332 20.5113 19.4922 20.4043 19.6344 20.2741L23.6091 16.636C23.9576 16.3175 24.4133 16.1401 24.8861 16.1401H31.5779" stroke="black" stroke-width="1.3" stroke-miterlimit="10" stroke-linecap="round" stroke-linejoin="round"/>
<path d="M6.43018 14.1179H12.7989" stroke="black" stroke-width="1.3" stroke-miterlimit="10" stroke-linecap="round" stroke-linejoin="round"/>
<path d="M7.19458 7.60693H12.7989" stroke="black" stroke-width="1.3" stroke-miterlimit="10" stroke-linecap="round" stroke-linejoin="round"/>
<path d="M5.82812 10.8625H12.7989" stroke="black" stroke-width="1.3" stroke-miterlimit="10" stroke-linecap="round" stroke-linejoin="round"/>
<path d="M46.1747 35.1619V24.5682C46.1747 24.3104 46.2269 24.0543 46.3297 23.8171L48.028 19.8894C48.1308 19.6522 48.183 19.397 48.183 19.1384V7.83264C48.183 6.92052 47.437 6.14542 46.525 6.16261C45.6403 6.17892 44.9277 6.90168 44.9277 7.78987V5.82765C44.9277 4.91211 44.1792 4.13789 43.2636 4.1585C42.3799 4.17822 41.6724 4.90098 41.6724 5.78575V3.67031C41.6724 2.7582 40.9256 1.98309 40.0135 2.00028C39.1289 2.01659 38.4171 2.73857 38.4171 3.62754V6.4298C38.4171 5.53136 37.6883 4.80254 36.789 4.80254C36.3394 4.80254 35.9334 4.98497 35.6388 5.2796C35.3442 5.57335 35.1617 5.98107 35.1617 6.4298V14.6476C35.1617 15.4719 34.4936 16.1401 33.6693 16.1401H30.5327L31.9424 19.1573C32.0237 19.332 32.1308 19.4922 32.2609 19.6344L35.8991 23.6091C36.2176 23.9576 36.395 24.4133 36.395 24.8861V32.2136" stroke="black" stroke-width="1.3" stroke-miterlimit="10" stroke-linecap="round" stroke-linejoin="round"/>
<path d="M17.3733 46.1747H27.9669C28.2247 46.1747 28.4808 46.2269 28.718 46.3297L32.6456 48.028C32.8829 48.1308 33.1381 48.183 33.3967 48.183H44.7026C45.6147 48.183 46.3898 47.4371 46.3726 46.525C46.3563 45.6403 45.6335 44.9277 44.7453 44.9277H46.7074C47.623 44.9277 48.3972 44.1792 48.3766 43.2636C48.3569 42.3799 47.6341 41.6724 46.7493 41.6724H48.8648C49.7769 41.6724 50.552 40.9256 50.5348 40.0135C50.5185 39.1289 49.7965 38.4171 48.9076 38.4171H46.1053C47.0037 38.4171 47.7326 37.6883 47.7326 36.789C47.7326 36.3394 47.5501 35.9334 47.2555 35.6388C46.9617 35.3442 46.554 35.1617 46.1053 35.1617H37.8875C37.0632 35.1617 36.395 34.4936 36.395 33.6693V30.5327L33.3778 31.9424C33.2031 32.0237 33.0429 32.1308 32.9007 32.2609L32.1804 32.9202" stroke="black" stroke-width="1.3" stroke-miterlimit="10" stroke-linecap="round" stroke-linejoin="round"/>
<path d="M29.8355 35.0669L28.9261 35.8993C28.5775 36.2179 28.1219 36.3952 27.6491 36.3952H20.1965" stroke="black" stroke-width="1.3" stroke-miterlimit="10" stroke-linecap="round" stroke-linejoin="round"/>
<path d="M38.4172 6.43018V12.7989" stroke="black" stroke-width="1.3" stroke-miterlimit="10" stroke-linecap="round" stroke-linejoin="round"/>
<path d="M44.928 7.19458V12.7989" stroke="black" stroke-width="1.3" stroke-miterlimit="10" stroke-linecap="round" stroke-linejoin="round"/>
<path d="M41.6726 5.82812V12.7989" stroke="black" stroke-width="1.3" stroke-miterlimit="10" stroke-linecap="round" stroke-linejoin="round"/>
</svg>
